# xmcd
#
# Track frame offsets:
#	150
#	14345
#	28357
#	39822
#	51712
#	63127
#	75102
#	86812
#	99390
#	112797
#	125240
#	139622
#	151512
#	163387
#	175890
#	186945
#	198242
#	209492
#
# Disc length: 2943 seconds
#
# Revision: 1
# Processed by: cddbd v1.5.1PL0 Copyright (c) Steve Scherf et al.
# Submitted via: audiograbber 1.83.01
#
DISCID=ee0b7d12
DTITLE=Peetie Wheatstraw - The Blues, Disk 2
DYEAR=1900
DGENRE=
TTITLE0=Sugar Mama
TTITLE1=Me No Lika You
TTITLE2=Beer Tavern
TTITLE3=I Want Some Sea Food
TTITLE4=Rolling Chair
TTITLE5=Love Bug Blues
TTITLE6=Confidence Man
TTITLE7=Chicago Mill Blues
TTITLE8=Suicide Blues
TTITLE9=Gangster's Blues
TTITLE10=What's That
TTITLE11=I Don't Feel Sleepy
TTITLE12=My Little Bit
TTITLE13=Love Me With Attention
TTITLE14=Old Organ Blues
TTITLE15=Hearse Man Blues
TTITLE16=Bring Me Flowers While I'm Living
TTITLE17=Separation Day Blues
EXTD=
EXTT0=
EXTT1=
EXTT2=
EXTT3=
EXTT4=
EXTT5=
EXTT6=
EXTT7=
EXTT8=
EXTT9=
EXTT10=
EXTT11=
EXTT12=
EXTT13=
EXTT14=
EXTT15=
EXTT16=
EXTT17=
PLAYORDER=
